 <svg  version="1.0" xmlns="http://www.w3.org/2000/svg"  width="215.000000pt" height="185.000000pt" viewBox="0 0 215.000000 185.000000"  preserveAspectRatio="xMidYMid meet">  <g transform="translate(0.000000,185.000000) scale(0.100000,-0.100000)" fill="#fa991c" stroke="none"> <path d="M160 1150 l0 -550 150 0 150 0 0 -65 0 -65 -40 0 c-39 0 -40 -1 -40 -35 l0 -35 670 0 670 0 0 35 c0 33 -2 35 -35 35 l-35 0 0 65 0 65 150 0 150 0 0 550 0 550 -895 0 -895 0 0 -550z m1740 0 l0 -500 -845 0 -845 0 0 500 0 500 845 0 845 0 0 -500z m-1230 -600 c0 -28 -3 -30 -35 -30 -32 0 -35 2 -35 30 0 28 3 30 35 30 32 0 35 -2 35 -30z m-90 -21 l0 -30 53 3 c48 3 52 5 55 31 l3 27 455 0 454 0 0 -40 0 -40 -545 0 -545 0 0 40 c0 39 1 40 35 40 32 0 35 -2 35 -31z"/> <path d="M260 1150 l0 -470 795 0 795 0 0 470 0 470 -795 0 -795 0 0 -470z m1540 0 l0 -420 -745 0 -745 0 0 420 0 420 745 0 745 0 0 -420z"/> <path d="M707 1373 c-4 -3 -7 -100 -7 -215 l0 -208 -125 0 -125 0 0 50 c0 58 -15 70 -54 45 -23 -15 -26 -24 -26 -77 0 -51 3 -61 19 -65 11 -3 22 -11 25 -19 8 -20 311 -21 323 -1 4 8 16 16 26 20 15 6 17 25 17 212 0 196 -1 207 -22 235 -21 29 -38 37 -51 23z"/> <path d="M912 1350 c-21 -28 -22 -39 -22 -217 1 -183 1 -189 24 -217 16 -19 30 -27 40 -23 13 5 16 23 16 92 l0 85 116 0 c63 0 124 5 135 10 17 10 19 22 19 133 0 115 -2 123 -24 145 -22 20 -33 22 -153 22 l-129 0 -22 -30z m248 -125 l0 -75 -95 0 -95 0 0 75 0 75 95 0 95 0 0 -75z"/> <path d="M1373 1356 c-22 -23 -23 -30 -23 -228 l0 -204 30 -22 c27 -20 41 -22 165 -22 107 0 137 3 141 14 3 8 14 16 26 19 12 4 18 12 16 24 -3 16 -17 18 -151 21 l-147 3 0 169 0 169 147 3 c132 3 148 5 151 21 2 10 -4 20 -15 24 -10 3 -22 12 -26 20 -6 10 -43 13 -150 13 -136 0 -143 -1 -164 -24z"/> <path d="M730 525 c0 -9 9 -15 25 -15 16 0 25 6 25 15 0 9 -9 15 -25 15 -16 0 -25 -6 -25 -15z"/> <path d="M1902 333 c4 -16 -1 -18 -44 -15 l-48 4 0 -86 0 -86 105 0 105 0 0 85 0 85 -40 0 c-29 0 -40 4 -40 15 0 9 -9 15 -21 15 -15 0 -20 -5 -17 -17z m-22 -83 c0 -11 5 -20 11 -20 6 0 13 9 16 20 4 14 14 20 34 20 26 0 29 -3 29 -35 l0 -35 -55 0 -55 0 0 35 c0 19 5 35 10 35 6 0 10 -9 10 -20z"/> <path d="M200 300 c0 -5 -16 -10 -35 -10 l-35 0 0 -65 0 -65 815 0 815 0 0 65 0 65 -35 0 c-19 0 -35 5 -35 10 0 6 -11 10 -25 10 -14 0 -25 -4 -25 -10 0 -5 -9 -10 -20 -10 -11 0 -20 5 -20 10 0 6 -11 10 -25 10 -14 0 -25 -4 -25 -10 0 -5 -9 -10 -20 -10 -11 0 -20 5 -20 10 0 6 -11 10 -25 10 -14 0 -25 -4 -25 -10 0 -5 -9 -10 -20 -10 -11 0 -20 5 -20 10 0 6 -11 10 -25 10 -14 0 -25 -4 -25 -10 0 -5 -9 -10 -20 -10 -11 0 -20 5 -20 10 0 6 -11 10 -25 10 -14 0 -25 -4 -25 -10 0 -5 -9 -10 -20 -10 -11 0 -20 5 -20 10 0 6 -11 10 -25 10 -14 0 -25 -4 -25 -10 0 -5 -9 -10 -20 -10 -11 0 -20 5 -20 10 0 6 -11 10 -25 10 -14 0 -25 -4 -25 -10 0 -5 -9 -10 -20 -10 -11 0 -20 5 -20 10 0 6 -11 10 -25 10 -14 0 -25 -4 -25 -10 0 -5 -9 -10 -20 -10 -11 0 -20 5 -20 10 0 6 -11 10 -25 10 -14 0 -25 -4 -25 -10 0 -5 -9 -10 -20 -10 -11 0 -20 5 -20 10 0 6 -11 10 -25 10 -14 0 -25 -4 -25 -10 0 -5 -9 -10 -20 -10 -11 0 -20 5 -20 10 0 6 -11 10 -25 10 -14 0 -25 -4 -25 -10 0 -5 -9 -10 -20 -10 -11 0 -20 5 -20 10 0 6 -11 10 -25 10 -14 0 -25 -4 -25 -10 0 -5 -9 -10 -20 -10 -11 0 -20 5 -20 10 0 6 -11 10 -25 10 -14 0 -25 -4 -25 -10 0 -5 -9 -10 -20 -10 -11 0 -20 5 -20 10 0 6 -11 10 -25 10 -14 0 -25 -4 -25 -10 0 -5 -9 -10 -20 -10 -11 0 -20 5 -20 10 0 6 -11 10 -25 10 -14 0 -25 -4 -25 -10 0 -5 -9 -10 -20 -10 -11 0 -20 5 -20 10 0 6 -11 10 -25 10 -14 0 -25 -4 -25 -10 0 -5 -9 -10 -20 -10 -11 0 -20 5 -20 10 0 6 -11 10 -25 10 -14 0 -25 -4 -25 -10z m1510 -75 c0 -13 -92 -15 -765 -15 -673 0 -765 2 -765 15 0 13 92 15 765 15 673 0 765 -2 765 -15z"/> </g> </svg> 